# xmcd
#
# Track frame offsets:
# 150
# 13087
# 23575
# 36597
# 50527
# 57525
# 65527
# 73440
# 87247
# 96715
# 104937
# 112967
# 123090
# 137055
# 148180
# 157330
# 166162
#
# Disc length: 2340 seconds
#
# Revision: 0
# Processed by: cddbd v1.5.2PL0 Copyright (c) Steve Scherf et al.
# Submitted via: Audion 3.0.2 (http://www.panic.com/audion/)
#
DISCID=0a092211
DTITLE=Designer Sounds - Beltway Blues and Other Colors
DYEAR=1900
DGENRE=
TTITLE0=She's Leaving Town
TTITLE1=Check It Out
TTITLE2=Gal From Joe's
TTITLE3=It's Over Now
TTITLE4=Swing Low
TTITLE5=Ease On Over
TTITLE6=Lonesome Road
TTITLE7=Lazy Boy
TTITLE8=Take The A Train
TTITLE9=Beltway Blues
TTITLE10=Erie Canal
TTITLE11=Sweet And Sour
TTITLE12=Volga Venue
TTITLE13=Montana Joe
TTITLE14=Donkey Shuffle
TTITLE15=Deja Vu Bleu
TTITLE16=Bendin' The Blues
EXTD=
EXTT0=
EXTT1=
EXTT2=
EXTT3=
EXTT4=
EXTT5=
EXTT6=
EXTT7=
EXTT8=
EXTT9=
EXTT10=
EXTT11=
EXTT12=
EXTT13=
EXTT14=
EXTT15=
EXTT16=
PLAYORDER=
